<svg width="1440" height="472" viewBox="0 0 1440 472" fill="none" xmlns="http://www.w3.org/2000/svg">
<path d="M1752.78 214.549C1706.85 210.897 1652.74 210.958 1606.63 212.908C1564.54 214.688 1515.87 214.676 1478.09 236.425C1450.4 252.366 1429.34 276.929 1419.35 307.525C1411.67 331.021 1409.89 356.495 1400.67 379.575C1392.88 399.053 1378.07 421.993 1363.77 437.489C1339.5 463.8 1299.42 480.374 1264.75 486.564C1227.99 493.126 1189.09 487.678 1152.04 487.938C1108.73 488.24 1068.86 493.177 1031.85 517.276C1008.89 532.23 994.957 556.314 974.672 574.673C951.011 596.089 917.112 609.512 887.985 621.282C841.494 640.069 793.76 650.609 743.956 656.236C712.381 659.803 679.754 659.636 648.201 655.899C629.034 653.629 612.332 649.186 596.264 638.557C581.123 628.542 564.821 618.354 560.092 600.092" stroke="url(#paint0_linear_63_964)" stroke-opacity="0.25" stroke-width="0.73291" stroke-linecap="round"/>
<path d="M1768.88 183.997C1722.95 180.346 1591.18 180.736 1545.07 182.686C1502.99 184.466 1454.32 184.454 1416.54 206.203C1388.85 222.144 1367.79 246.707 1357.8 277.304C1350.12 300.799 1348.34 326.274 1339.12 349.353C1331.33 368.831 1316.52 391.771 1302.22 407.267C1277.95 433.578 1237.87 450.152 1203.19 456.342C1166.44 462.904 1127.54 457.457 1090.49 457.716C1047.18 458.019 1007.31 462.955 970.302 487.054C947.337 502.008 933.405 526.092 913.12 544.451C889.459 565.867 855.56 579.29 826.433 591.06C779.942 609.847 732.208 620.388 682.404 626.014C650.829 629.581 618.202 629.414 586.649 625.677C567.482 623.407 550.78 618.964 534.711 608.335C519.571 598.32 503.269 588.132 498.54 569.87" stroke="url(#paint1_linear_63_964)" stroke-opacity="0.25" stroke-width="0.73291" stroke-linecap="round"/>
<path d="M1766.17 152.243C1720.25 148.591 1531.25 144.319 1485.14 146.27C1443.05 148.05 1394.38 148.038 1356.6 169.787C1328.91 185.727 1307.85 210.291 1297.86 240.887C1290.19 264.382 1288.4 289.857 1279.18 312.937C1271.4 332.414 1256.58 355.355 1242.29 370.851C1218.01 397.162 1177.93 413.736 1143.26 419.926C1106.5 426.487 1067.6 421.04 1030.55 421.299C987.241 421.602 947.374 426.539 910.366 450.637C887.401 465.591 873.47 489.675 853.185 508.035C829.523 529.451 795.625 542.873 766.498 554.643C720.007 573.43 672.272 583.971 622.469 589.597C590.894 593.165 558.267 592.998 526.714 589.261C507.546 586.991 490.845 582.547 474.777 571.919C459.637 561.904 443.335 551.715 438.605 533.453" stroke="url(#paint2_linear_63_964)" stroke-opacity="0.25" stroke-width="0.73291" stroke-linecap="round"/>
<path d="M1792.09 128.459C1746.17 124.807 1489.62 107.266 1443.52 109.216C1401.43 110.996 1352.76 110.984 1314.98 132.733C1287.29 148.674 1266.23 173.237 1256.24 203.834C1248.56 227.329 1246.78 252.804 1237.56 275.883C1229.77 295.361 1214.96 318.301 1200.66 333.797C1176.39 360.109 1136.31 376.682 1101.64 382.872C1064.88 389.434 1025.98 383.987 988.93 384.246C945.618 384.549 905.751 389.486 868.744 413.584C845.779 428.538 831.847 452.622 811.562 470.981C787.9 492.397 754.002 505.82 724.875 517.59C678.384 536.377 630.649 546.918 580.846 552.544C549.271 556.111 516.644 555.944 485.091 552.207C465.924 549.937 449.222 545.494 433.153 534.865C418.013 524.85 401.711 514.662 396.981 496.4" stroke="url(#paint3_linear_63_964)" stroke-opacity="0.25" stroke-width="0.73291" stroke-linecap="round"/>
<path d="M1794.59 92.2214C1748.67 88.5695 1457.52 80.2435 1411.41 82.1936C1369.32 83.9736 1320.65 83.9617 1282.87 105.711C1255.18 121.651 1234.12 146.215 1224.13 176.811C1216.45 200.307 1214.67 225.781 1205.45 248.861C1197.67 268.338 1182.85 291.279 1168.56 306.775C1144.28 333.086 1104.2 349.66 1069.53 355.85C1032.77 362.411 993.873 356.964 956.823 357.223C913.511 357.526 873.644 362.463 836.636 386.561C813.671 401.515 799.74 425.599 779.455 443.959C755.793 465.375 721.894 478.797 692.768 490.567C646.276 509.354 598.542 519.895 548.739 525.521C517.164 529.089 484.537 528.922 452.984 525.185C433.816 522.915 417.115 518.471 401.046 507.843C385.906 497.828 369.604 487.639 364.874 469.377" stroke="url(#paint4_linear_63_964)" stroke-opacity="0.25" stroke-width="0.73291" stroke-linecap="round"/>
<path d="M1799.4 61.6095C1753.47 57.9576 1395.96 50.0217 1349.86 51.9718C1307.77 53.7518 1259.1 53.7399 1221.32 75.4889C1193.63 91.4293 1172.57 115.993 1162.58 146.589C1154.9 170.085 1153.12 195.559 1143.9 218.639C1136.11 238.116 1121.3 261.057 1107 276.553C1082.73 302.864 1042.65 319.438 1007.98 325.628C971.22 332.189 932.32 326.742 895.27 327.001C851.958 327.304 812.091 332.241 775.083 356.339C752.118 371.293 738.186 395.378 717.902 413.737C694.24 435.153 660.341 448.576 631.215 460.345C584.723 479.132 536.989 489.673 487.186 495.3C455.611 498.867 422.984 498.7 391.431 494.963C372.264 492.693 355.562 488.25 339.494 477.621C324.354 467.606 308.052 457.417 303.322 439.156" stroke="url(#paint5_linear_63_964)" stroke-opacity="0.25" stroke-width="0.73291" stroke-linecap="round"/>
<path d="M1566.39 18.1712C1520.47 14.5192 1336.03 13.6051 1289.92 15.5552C1247.83 17.3352 1199.16 17.3233 1161.38 39.0723C1133.69 55.0128 1112.64 79.5763 1102.64 110.173C1094.97 133.668 1093.18 159.143 1083.96 182.222C1076.18 201.7 1061.36 224.64 1047.07 240.137C1022.79 266.448 982.715 283.021 948.04 289.212C911.285 295.773 872.385 290.326 835.335 290.585C792.023 290.888 752.156 295.825 715.148 319.923C692.183 334.877 678.252 358.961 657.967 377.32C634.305 398.736 600.407 412.159 571.28 423.929C524.788 442.716 477.054 453.257 427.251 458.883C395.676 462.45 363.049 462.284 331.496 458.547C312.328 456.277 295.627 451.833 279.558 441.204C264.418 431.19 248.116 421.001 243.386 402.739" stroke="url(#paint6_linear_63_964)" stroke-opacity="0.25" stroke-width="0.73291" stroke-linecap="round"/>
<defs>
<linearGradient id="paint0_linear_63_964" x1="1150.22" y1="228.74" x2="1164.63" y2="642.827" gradientUnits="userSpaceOnUse">
<stop stop-color="white"/>
<stop offset="0.885417" stop-color="white" stop-opacity="0"/>
</linearGradient>
<linearGradient id="paint1_linear_63_964" x1="1127.46" y1="197.19" x2="1141.86" y2="611.256" gradientUnits="userSpaceOnUse">
<stop stop-color="white"/>
<stop offset="0.885417" stop-color="white" stop-opacity="0"/>
</linearGradient>
<linearGradient id="paint2_linear_63_964" x1="1096.02" y1="159.794" x2="1110.42" y2="573.848" gradientUnits="userSpaceOnUse">
<stop stop-color="white"/>
<stop offset="0.885417" stop-color="white" stop-opacity="0"/>
</linearGradient>
<linearGradient id="paint3_linear_63_964" x1="1087.9" y1="121.58" x2="1102.3" y2="535.63" gradientUnits="userSpaceOnUse">
<stop stop-color="white"/>
<stop offset="0.885417" stop-color="white" stop-opacity="0"/>
</linearGradient>
<linearGradient id="paint4_linear_63_964" x1="1073.23" y1="93.9499" x2="1087.63" y2="508.001" gradientUnits="userSpaceOnUse">
<stop stop-color="white"/>
<stop offset="0.885417" stop-color="white" stop-opacity="0"/>
</linearGradient>
<linearGradient id="paint5_linear_63_964" x1="1044.83" y1="62.5757" x2="1059.23" y2="476.626" gradientUnits="userSpaceOnUse">
<stop stop-color="white"/>
<stop offset="0.885417" stop-color="white" stop-opacity="0"/>
</linearGradient>
<linearGradient id="paint6_linear_63_964" x1="898.585" y1="29.1533" x2="912.985" y2="443.211" gradientUnits="userSpaceOnUse">
<stop stop-color="white"/>
<stop offset="0.885417" stop-color="white" stop-opacity="0"/>
</linearGradient>
</defs>
</svg>
