<svg width="16" height="16" viewBox="0 0 16 16" fill="none" xmlns="http://www.w3.org/2000/svg">
<g clip-path="url(#clip0_212_3925)">
<path d="M14.247 9.07345C13.8137 11.7001 11.8604 13.7201 9.24702 14.2135C7.81369 14.4868 6.45368 14.2735 5.28035 13.7201C5.08701 13.6268 4.77367 13.5868 4.56701 13.6335C4.12701 13.7401 3.38703 13.9201 2.76037 14.0668C2.16037 14.2135 1.78704 13.8401 1.93371 13.2401L2.36702 11.4401C2.42035 11.2335 2.37368 10.9135 2.28035 10.7201C1.74701 9.60012 1.53369 8.30012 1.75369 6.93345C2.18036 4.30678 4.30037 2.18012 6.92703 1.74678C11.2604 1.04678 14.9537 4.74012 14.247 9.07345Z" stroke="#9F9FA0" stroke-miterlimit="10" stroke-linecap="round" stroke-linejoin="round"/>
<path d="M9.39258 4.38672C10.4192 4.78672 11.2326 5.60672 11.6192 6.64005" stroke="#9F9FA0" stroke-miterlimit="10" stroke-linecap="round" stroke-linejoin="round"/>
</g>
<defs>
<clipPath id="clip0_212_3925">
<rect width="16" height="16" fill="white"/>
</clipPath>
</defs>
</svg>
