<svg width="131" height="24" viewBox="0 0 131 24" fill="none" xmlns="http://www.w3.org/2000/svg">
<path d="M5.43506 9.73951L17.452 22.5953V12.8558L5.43506 0V9.73951Z" fill="#D0FF12"/>
<path d="M5.43497 9.7395H0V22.8878H5.43497V9.7395Z" fill="#D0FF12"/>
<path d="M22.8871 0H17.4521V13.1483H22.8871V0Z" fill="#D0FF12"/>
<path d="M34.5549 19.5059H32.7822V2.77763H34.7047L43.9926 16.5347H44.1424V2.77763H45.9401V19.5059H43.9926L34.6798 5.7987H34.5549V19.5059Z" fill="white"/>
<path d="M49.3443 5.52406H47.5716V2.77763H49.3443V5.52406ZM49.3443 19.5059H47.5716V7.02211H49.3443V19.5059Z" fill="white"/>
<path d="M55.5331 18.4073C52.1375 18.4073 50.19 16.1602 50.19 12.6648C50.19 9.16931 52.1125 6.92224 55.558 6.92224C57.7302 6.92224 59.3781 7.99584 59.9273 9.56879H60.0272V7.17191H61.6251V18.9815C61.6251 22.3272 59.4779 24 56.2322 24C53.0863 24 50.8642 22.3521 50.8642 19.5059H52.6368C52.6368 21.5282 53.6605 22.4021 56.2571 22.4021C58.9037 22.4021 59.8275 21.4533 59.8275 18.9815V15.8356H59.8025C59.2283 17.2588 57.6803 18.4073 55.5331 18.4073ZM51.9877 12.6648C51.9877 15.9355 53.5606 16.8593 55.9575 16.8593C58.1796 16.8593 59.8275 15.586 59.8275 13.0393V12.2902C59.8275 9.74356 58.1547 8.47022 55.8577 8.47022C53.5107 8.47022 51.9877 9.41899 51.9877 12.6648Z" fill="white"/>
<path d="M64.9659 19.5059H63.1682V2.77763H64.9659V9.46892H65.0658C65.5402 8.29545 66.8135 6.92224 69.3102 6.92224C72.5311 6.92224 73.9043 9.06944 73.9043 11.8908V19.5059H72.1316V12.3402C72.1316 9.66866 71.2327 8.49519 68.736 8.49519C66.2642 8.49519 64.9659 9.64369 64.9659 12.4151V19.5059Z" fill="white"/>
<path d="M79.9735 19.5308C77.7015 19.5308 76.3782 18.632 76.3782 16.0104V8.7199H74.3059V7.17191H76.4032L76.8276 4.02601H78.1759V7.17191H82.0708V8.7199H78.1759V16.1103C78.1759 17.5584 78.85 17.883 80.4479 17.883H82.0708V19.3311C81.6463 19.406 80.8723 19.5308 79.9735 19.5308Z" fill="white"/>
<path d="M87.2921 19.7555C83.9215 19.7555 82.0739 18.3324 82.0739 15.4611V15.4112H83.8216V15.7108C83.8216 17.4086 84.5207 18.2325 87.3171 18.2325C89.6141 18.2325 90.2133 17.5834 90.2133 16.335C90.2133 15.0866 89.4393 14.6372 87.5667 14.2876L85.5194 13.9381C83.522 13.5636 82.0739 12.6398 82.0739 10.4676C82.0739 8.34538 83.8716 6.92224 86.7928 6.92224C89.6141 6.92224 91.6864 8.37035 91.6864 11.1417V11.2666H89.9636V11.0668C89.9636 9.59376 89.3894 8.47022 86.7428 8.47022C84.4958 8.47022 83.7967 9.19428 83.7967 10.4427C83.7967 11.691 84.4208 12.1155 86.2684 12.465L88.3657 12.8645C90.5129 13.264 91.9361 14.2127 91.9361 16.2601C91.9361 18.4572 90.1384 19.7555 87.2921 19.7555Z" fill="white"/>
<path d="M96.4901 19.7555C94.243 19.7555 92.5452 18.607 92.5452 16.5347C92.5452 14.3875 94.1431 13.4388 96.8396 13.0642L101.184 12.465V11.5662C101.184 9.39402 100.26 8.52016 97.9382 8.52016C95.6911 8.52016 94.6425 9.39402 94.6425 11.3665V11.741H92.9197V11.5412C92.9197 8.96957 94.8922 6.92224 98.088 6.92224C101.384 6.92224 102.882 9.04447 102.882 11.7909V19.5059H101.259V17.2338L101.134 17.2088C100.41 18.632 98.837 19.7555 96.4901 19.7555ZM94.2929 16.4099C94.2929 17.6832 95.0919 18.2575 96.9894 18.2575C99.1117 18.2575 101.184 17.1589 101.184 14.2377V13.8133L96.9894 14.4125C95.017 14.6871 94.2929 15.0866 94.2929 16.4099Z" fill="white"/>
<path d="M106.002 19.5059H104.379V2.77763H106.177V9.51886C106.726 8.17061 108.249 6.92224 110.621 6.92224C113.992 6.92224 115.814 9.44395 115.814 13.3389C115.814 17.2338 113.892 19.7555 110.421 19.7555C108.099 19.7555 106.626 18.6819 106.077 17.1339H106.002V19.5059ZM106.177 14.4125C106.177 16.9342 107.675 18.2075 110.122 18.2075C112.544 18.2075 114.017 17.109 114.017 13.3389C114.017 9.56879 112.519 8.47022 110.122 8.47022C107.675 8.47022 106.177 9.74356 106.177 12.2902V14.4125Z" fill="white"/>
<path d="M118.558 19.5059H116.761V2.77763H118.558V19.5059Z" fill="white"/>
<path d="M125.267 19.7555C121.472 19.7555 119.499 17.084 119.499 13.3389C119.499 9.59376 121.721 6.92224 125.242 6.92224C128.213 6.92224 130.66 8.7199 130.66 12.3651C130.66 12.9394 130.61 13.4887 130.535 13.8382H121.197C121.272 16.5597 122.345 18.1576 125.292 18.1576C127.788 18.1576 128.787 17.0341 128.787 15.536V15.3862H130.56V15.561C130.56 17.9329 128.413 19.7555 125.267 19.7555ZM125.192 8.47022C122.445 8.47022 121.347 10.0432 121.197 12.5399H128.962C129.062 9.61873 127.614 8.47022 125.192 8.47022Z" fill="white"/>
</svg>
