<svg width="74" height="18" viewBox="0 0 74 18" fill="none" xmlns="http://www.w3.org/2000/svg">
<path d="M70.5147 2.68918V0.941829H71.1642V0.52432H69.4014V0.941829H70.0508V2.68918H70.5147Z" fill="white"/>
<path d="M71.7042 2.68918V1.15831H71.7197L72.2454 2.68918H72.632L73.1577 1.15831H73.1732V2.68918H73.6371V0.52432H72.966L72.4526 2.03354H72.4341L71.9207 0.52432H71.2403V2.68918H71.7042Z" fill="white"/>
<path d="M1.80541 12.892C2.74625 13.604 3.94138 13.96 5.36536 13.96C6.45878 13.96 7.42505 13.782 8.23875 13.4515C9.02703 13.1209 9.66274 12.6378 10.095 12.0275C10.5273 11.4426 10.7307 10.7561 10.7307 10.0186C10.7307 9.12864 10.5019 8.39122 10.0696 7.85722C9.61188 7.32323 9.07789 6.9418 8.46761 6.71295C7.8319 6.48409 7.0182 6.22981 6.0265 6.00095C5.28908 5.82296 4.72966 5.67039 4.3228 5.54324C3.89052 5.4161 3.55996 5.21267 3.28024 4.95839C3.00053 4.70411 2.87339 4.37354 2.87339 3.96669C2.87339 3.45812 3.07682 3.05127 3.5091 2.74613C3.94138 2.46641 4.55166 2.31384 5.36536 2.31384C6.71306 2.31384 7.57762 2.79698 7.93362 3.73783H10.5019C10.273 2.59356 9.68816 1.70356 8.77275 1.06786C7.8319 0.457574 6.71306 0.152434 5.36536 0.152434C4.37366 0.152434 3.48367 0.330433 2.74625 0.661002C2.00883 1.017 1.42398 1.47471 1.04256 2.05956C0.635706 2.64441 0.43228 3.28012 0.43228 3.96669C0.43228 4.90753 0.661135 5.67039 1.11884 6.20438C1.57655 6.7638 2.13597 7.17066 2.77168 7.39951C3.40739 7.62837 4.22109 7.85722 5.21279 8.08608C5.95021 8.26408 6.50963 8.39122 6.89106 8.51836C7.27248 8.6455 7.60305 8.84893 7.88276 9.07778C8.13704 9.30664 8.26418 9.63721 8.26418 10.0186C8.26418 10.5526 8.03533 10.9595 7.55219 11.29C7.06905 11.6206 6.35706 11.7986 5.36536 11.7986C4.6788 11.7986 4.09395 11.646 3.58538 11.3155C3.07682 11.0103 2.74625 10.5781 2.59368 10.0441H0C0.254283 11.2392 0.864561 12.2055 1.80541 12.892Z" fill="white"/>
<path d="M11.732 13.7057H14.1476V5.69581C14.1476 4.75496 14.4528 3.96669 15.0885 3.33098C15.6988 2.69527 16.4616 2.3647 17.4025 2.3647C18.3179 2.3647 19.0553 2.64441 19.6147 3.22926C20.1487 3.81412 20.4284 4.65325 20.4284 5.69581V13.7057H22.8441V5.51781C22.8441 4.4244 22.6407 3.48355 22.2084 2.66984C21.7761 1.85613 21.1658 1.22042 20.4284 0.788143C19.691 0.355861 18.8264 0.152434 17.8856 0.152434C17.1227 0.152434 16.4108 0.305005 15.7751 0.610144C15.1139 0.940713 14.5799 1.42385 14.1476 2.11042H14.0205L13.7154 0.406718H11.732V13.7057Z" fill="white"/>
<path d="M33.4326 1.44928C32.4917 0.584716 31.1949 0.152434 29.5421 0.152434C28.1435 0.152434 26.9992 0.483002 26.0838 1.16957C25.1684 1.85613 24.5581 2.79698 24.253 3.99211H26.7704C26.9484 3.48355 27.2535 3.07669 27.7367 2.77155C28.2198 2.46641 28.8046 2.31384 29.5166 2.31384C30.4066 2.31384 31.0932 2.5427 31.6272 3.00041C32.1612 3.48355 32.4155 4.11926 32.4155 4.93296V5.74667H28.8809C27.3044 5.74667 26.0838 6.1281 25.1938 6.89095C24.3038 7.6538 23.8461 8.6455 23.8461 9.84063C23.8461 10.6289 24.0496 11.3155 24.431 11.9512C24.8124 12.5869 25.3464 13.07 26.033 13.426C26.7195 13.782 27.5332 13.96 28.4487 13.96C29.3895 13.96 30.2032 13.7566 30.9152 13.3497C31.6272 12.9683 32.1357 12.5106 32.4155 12.002H32.5426L32.8223 13.7057H34.8311V4.98382C34.8311 3.48355 34.3734 2.31384 33.4326 1.44928ZM31.4238 10.8832C30.7372 11.5189 29.8472 11.824 28.7284 11.824C27.9401 11.824 27.3552 11.646 26.923 11.2646C26.4907 10.8832 26.2618 10.4001 26.2618 9.76435C26.2618 9.15407 26.4907 8.67093 26.9484 8.2895C27.3807 7.93351 28.0418 7.75551 28.9318 7.75551H32.4155V8.49293C32.4155 9.45921 32.0849 10.2475 31.4238 10.8832Z" fill="white"/>
<path d="M45.7971 13.7057L46.4843 11.4935H38.6009L46.3572 2.28841V0.406718H35.9055V2.61898H42.7203L35.6512 11.824V13.7057H45.7971Z" fill="white"/>
<path d="M55.9426 13.7057V11.4935H48.7464L56.159 1.94479L55.8154 0.406718H46.051V2.61898H52.8657L45.7967 11.824V13.7057H55.9426Z" fill="white"/>
<path d="M61.5494 17.7605L68.4783 0.406718H65.9355L62.0195 10.4763H61.8924L57.8238 0.406718H55.2302L60.6972 13.7057L59.0066 17.7605H61.5494Z" fill="white"/>
</svg>
