<svg width="131" height="24" viewBox="0 0 131 24" fill="none" xmlns="http://www.w3.org/2000/svg">
<path d="M5.43555 9.73951L17.4525 22.5953V12.8558L5.43555 0V9.73951Z" fill="#D0FF12"/>
<path d="M5.43497 9.73951H0V22.8878H5.43497V9.73951Z" fill="#D0FF12"/>
<path d="M22.8861 0H17.4512V13.1483H22.8861V0Z" fill="#D0FF12"/>
<path d="M34.5559 19.5059H32.7832V2.77764H34.7057L43.9936 16.5347H44.1434V2.77764H45.9411V19.5059H43.9936L34.6807 5.7987H34.5559V19.5059Z" fill="#0E0F11"/>
<path d="M49.3452 5.52406H47.5725V2.77764H49.3452V5.52406ZM49.3452 19.5059H47.5725V7.02211H49.3452V19.5059Z" fill="#0E0F11"/>
<path d="M55.534 18.4073C52.1385 18.4073 50.191 16.1602 50.191 12.6648C50.191 9.16931 52.1135 6.92224 55.559 6.92224C57.7312 6.92224 59.379 7.99584 59.9283 9.56879H60.0282V7.17191H61.6261V18.9815C61.6261 22.3272 59.4789 24 56.2331 24C53.0872 24 50.8651 22.3521 50.8651 19.5059H52.6378C52.6378 21.5282 53.6615 22.4021 56.2581 22.4021C58.9047 22.4021 59.8285 21.4533 59.8285 18.9815V15.8356H59.8035C59.2292 17.2588 57.6813 18.4073 55.534 18.4073ZM51.9887 12.6648C51.9887 15.9355 53.5616 16.8593 55.9585 16.8593C58.1806 16.8593 59.8285 15.586 59.8285 13.0393V12.2902C59.8285 9.74356 58.1556 8.47022 55.8586 8.47022C53.5117 8.47022 51.9887 9.41899 51.9887 12.6648Z" fill="#0E0F11"/>
<path d="M64.9669 19.5059H63.1692V2.77764H64.9669V9.46892H65.0668C65.5411 8.29545 66.8145 6.92224 69.3112 6.92224C72.532 6.92224 73.9052 9.06944 73.9052 11.8908V19.5059H72.1325V12.3402C72.1325 9.66866 71.2337 8.49519 68.737 8.49519C66.2652 8.49519 64.9669 9.64369 64.9669 12.4151V19.5059Z" fill="#0E0F11"/>
<path d="M79.9745 19.5308C77.7024 19.5308 76.3792 18.632 76.3792 16.0104V8.7199H74.3069V7.17191H76.4041L76.8286 4.02601H78.1768V7.17191H82.0718V8.7199H78.1768V16.1103C78.1768 17.5584 78.851 17.883 80.4489 17.883H82.0718V19.3311C81.6473 19.406 80.8733 19.5308 79.9745 19.5308Z" fill="#0E0F11"/>
<path d="M87.2931 19.7555C83.9225 19.7555 82.0749 18.3324 82.0749 15.4611V15.4112H83.8226V15.7108C83.8226 17.4086 84.5217 18.2325 87.3181 18.2325C89.6151 18.2325 90.2143 17.5834 90.2143 16.335C90.2143 15.0866 89.4403 14.6372 87.5677 14.2876L85.5204 13.9381C83.523 13.5636 82.0749 12.6398 82.0749 10.4676C82.0749 8.34539 83.8725 6.92224 86.7937 6.92224C89.6151 6.92224 91.6874 8.37035 91.6874 11.1417V11.2666H89.9646V11.0668C89.9646 9.59376 89.3904 8.47022 86.7438 8.47022C84.4967 8.47022 83.7976 9.19428 83.7976 10.4427C83.7976 11.691 84.4218 12.1155 86.2694 12.465L88.3667 12.8645C90.5139 13.264 91.937 14.2127 91.937 16.2601C91.937 18.4572 90.1394 19.7555 87.2931 19.7555Z" fill="#0E0F11"/>
<path d="M96.4911 19.7555C94.244 19.7555 92.5462 18.607 92.5462 16.5347C92.5462 14.3875 94.1441 13.4388 96.8406 13.0642L101.185 12.465V11.5662C101.185 9.39402 100.261 8.52016 97.9392 8.52016C95.6921 8.52016 94.6435 9.39402 94.6435 11.3665V11.741H92.9207V11.5412C92.9207 8.96957 94.8932 6.92224 98.089 6.92224C101.385 6.92224 102.883 9.04447 102.883 11.7909V19.5059H101.26V17.2338L101.135 17.2088C100.411 18.632 98.838 19.7555 96.4911 19.7555ZM94.2939 16.4099C94.2939 17.6832 95.0929 18.2575 96.9904 18.2575C99.1127 18.2575 101.185 17.1589 101.185 14.2377V13.8133L96.9904 14.4125C95.018 14.6871 94.2939 15.0866 94.2939 16.4099Z" fill="#0E0F11"/>
<path d="M106.003 19.5059H104.38V2.77764H106.178V9.51886C106.727 8.17061 108.25 6.92224 110.622 6.92224C113.993 6.92224 115.815 9.44396 115.815 13.3389C115.815 17.2338 113.893 19.7555 110.422 19.7555C108.1 19.7555 106.627 18.6819 106.078 17.1339H106.003V19.5059ZM106.178 14.4125C106.178 16.9342 107.676 18.2075 110.123 18.2075C112.545 18.2075 114.018 17.109 114.018 13.3389C114.018 9.56879 112.52 8.47022 110.123 8.47022C107.676 8.47022 106.178 9.74356 106.178 12.2902V14.4125Z" fill="#0E0F11"/>
<path d="M118.559 19.5059H116.762V2.77764H118.559V19.5059Z" fill="#0E0F11"/>
<path d="M125.268 19.7555C121.473 19.7555 119.5 17.084 119.5 13.3389C119.5 9.59376 121.722 6.92224 125.243 6.92224C128.214 6.92224 130.661 8.7199 130.661 12.3652C130.661 12.9394 130.611 13.4887 130.536 13.8382H121.198C121.273 16.5597 122.346 18.1576 125.293 18.1576C127.789 18.1576 128.788 17.0341 128.788 15.536V15.3862H130.561V15.561C130.561 17.9329 128.414 19.7555 125.268 19.7555ZM125.193 8.47022C122.446 8.47022 121.348 10.0432 121.198 12.5399H128.963C129.063 9.61873 127.615 8.47022 125.193 8.47022Z" fill="#0E0F11"/>
</svg>
