<svg width="14" height="14" viewBox="0 0 14 14" fill="none" xmlns="http://www.w3.org/2000/svg">
<g clip-path="url(#clip0_159_3957)">
<path d="M7 0C3.1402 0 0 3.14024 0 7.00004C0 10.8598 3.1402 14 7 14C10.8598 14 14 10.8598 14 7.00004C14 3.14024 10.8598 0 7 0ZM7 12.7273C3.84194 12.7273 1.27273 10.1581 1.27273 7.00004C1.27273 3.84202 3.84194 1.27273 7 1.27273C10.1581 1.27273 12.7273 3.84202 12.7273 7.00004C12.7273 10.1581 10.158 12.7273 7 12.7273Z" fill="#878787"/>
<path d="M6.99968 2.96973C6.53191 2.96973 6.15137 3.35053 6.15137 3.81859C6.15137 4.28624 6.53191 4.6667 6.99968 4.6667C7.46745 4.6667 7.848 4.28624 7.848 3.81859C7.848 3.35053 7.46745 2.96973 6.99968 2.96973Z" fill="#878787"/>
<path d="M7.00062 5.93933C6.64918 5.93933 6.36426 6.22425 6.36426 6.57569V10.3939C6.36426 10.7453 6.64918 11.0302 7.00062 11.0302C7.35206 11.0302 7.63699 10.7453 7.63699 10.3939V6.57569C7.63699 6.22425 7.35206 5.93933 7.00062 5.93933Z" fill="#878787"/>
</g>
<defs>
<clipPath id="clip0_159_3957">
<rect width="14" height="14" fill="white"/>
</clipPath>
</defs>
</svg>
